<svg xmlns="http://www.w3.org/2000/svg" width="23" height="21" viewBox="0 0 23 21"><g><g><path fill="#fff" d="M20.896 21.044H1.926A1.923 1.923 0 0 1 0 19.118c0-1.067.86-1.927 1.927-1.927h18.97c1.066 0 1.926.86 1.926 1.927 0 1.067-.86 1.926-1.927 1.926zm0-8.595H1.926A1.923 1.923 0 0 1 0 10.522c0-1.067.86-1.926 1.927-1.926h18.97c1.066 0 1.926.86 1.926 1.926 0 1.067-.86 1.927-1.927 1.927zm0-8.596H1.926A1.923 1.923 0 0 1 0 1.927C0 .86.86 0 1.927 0h18.97c1.066 0 1.926.86 1.926 1.927 0 1.067-.86 1.926-1.927 1.926z"/></g></g></svg>